<?xml version="1.0" standalone="no"?>
<!DOCTYPE svg PUBLIC "-//W3C//DTD SVG 20010904//EN"
 "http://www.w3.org/TR/2001/REC-SVG-20010904/DTD/svg10.dtd">
<svg version="1.0" xmlns="http://www.w3.org/2000/svg"
 width="1280.000000pt" height="853.000000pt" viewBox="0 0 1280.000000 853.000000"
 preserveAspectRatio="xMidYMid meet">
<metadata>
Created by potrace 1.15, written by Peter Selinger 2001-2017
</metadata>
<g transform="translate(0.000000,853.000000) scale(0.100000,-0.100000)"
fill="#000000" stroke="none">
<path d="M5959 7930 c-78 -41 -152 -157 -203 -317 -75 -240 -126 -679 -126
-1093 l0 -189 -37 -9 c-21 -6 -112 -26 -203 -46 -364 -82 -737 -193 -957 -286
-200 -85 -324 -178 -339 -255 -17 -93 120 -232 388 -391 205 -121 633 -325
938 -446 l85 -34 -3 -35 c-1 -18 -9 -122 -17 -229 -35 -454 -30 -977 11 -1180
29 -138 80 -220 140 -220 74 0 224 92 404 248 109 94 389 373 530 527 35 39
60 61 55 50 -29 -70 -45 -129 -36 -138 14 -14 31 1 31 26 0 31 42 118 97 200
58 87 68 74 14 -19 -57 -98 -100 -213 -107 -283 -11 -103 7 -133 149 -253 251
-210 395 -381 464 -549 43 -104 57 -181 50 -297 -6 -126 -38 -225 -119 -367
-54 -95 -63 -117 -66 -171 -16 -242 274 -608 848 -1070 240 -193 705 -524 737
-524 34 0 3 31 -95 95 -376 245 -802 584 -1062 845 -215 216 -336 386 -382
534 -31 101 -22 154 42 265 97 169 131 278 131 428 1 277 -133 495 -499 810
-73 63 -139 125 -148 138 -23 35 -28 87 -14 147 12 53 98 248 109 248 8 0 -5
-240 -14 -262 -28 -69 376 72 456 158 l24 26 -110 105 c-60 58 -103 103 -95
100 8 -3 89 -34 180 -70 511 -201 855 -298 1065 -301 139 -1 175 13 201 81 15
39 16 54 5 121 -36 235 -269 716 -601 1242 -39 62 -70 116 -68 121 2 4 48 61
104 126 374 437 677 866 755 1068 71 182 42 239 -133 266 -196 31 -678 -28
-1248 -152 -102 -22 -198 -43 -215 -45 -30 -5 -30 -5 -117 168 -48 95 -124
236 -169 313 -355 608 -641 875 -830 775z"/>
</g>
</svg>
